<svg width="44" height="44" viewBox="0 0 44 44" fill="none" xmlns="http://www.w3.org/2000/svg">
<path d="M21.9997 7.33325C23.9446 7.33325 25.8099 8.10587 27.1851 9.48113C28.5604 10.8564 29.333 12.7217 29.333 14.6666C29.333 16.6115 28.5604 18.4768 27.1851 19.852C25.8099 21.2273 23.9446 21.9999 21.9997 21.9999C20.0548 21.9999 18.1895 21.2273 16.8142 19.852C15.439 18.4768 14.6663 16.6115 14.6663 14.6666C14.6663 12.7217 15.439 10.8564 16.8142 9.48113C18.1895 8.10587 20.0548 7.33325 21.9997 7.33325ZM21.9997 25.6666C30.103 25.6666 36.6663 28.9482 36.6663 32.9999V36.6666H7.33301V32.9999C7.33301 28.9482 13.8963 25.6666 21.9997 25.6666Z" fill="#DBD7F7"/>
</svg>
