<svg width="44" height="44" viewBox="0 0 44 44" fill="none" xmlns="http://www.w3.org/2000/svg">
<path d="M16.5 18.3333V21.9999H12.8333V18.3333H16.5ZM23.8333 18.3333V21.9999H20.1667V18.3333H23.8333ZM31.1667 18.3333V21.9999H27.5V18.3333H31.1667ZM34.8333 5.49992C35.8058 5.49992 36.7384 5.88623 37.4261 6.57386C38.1137 7.26149 38.5 8.19412 38.5 9.16659V34.8333C38.5 35.8057 38.1137 36.7383 37.4261 37.426C36.7384 38.1136 35.8058 38.4999 34.8333 38.4999H9.16667C7.13167 38.4999 5.5 36.8499 5.5 34.8333V9.16659C5.5 8.19412 5.88631 7.26149 6.57394 6.57386C7.26157 5.88623 8.19421 5.49992 9.16667 5.49992H11V1.83325H14.6667V5.49992H29.3333V1.83325H33V5.49992H34.8333ZM34.8333 34.8333V14.6666H9.16667V34.8333H34.8333ZM16.5 25.6666V29.3333H12.8333V25.6666H16.5ZM23.8333 25.6666V29.3333H20.1667V25.6666H23.8333ZM31.1667 25.6666V29.3333H27.5V25.6666H31.1667Z" fill="#DBD7F7"/>
</svg>
