<svg width="44" height="44" viewBox="0 0 44 44" fill="none" xmlns="http://www.w3.org/2000/svg">
<path d="M22.0003 36.6667C25.8902 36.6667 29.6207 35.1215 32.3712 32.371C35.1218 29.6204 36.667 25.8899 36.667 22.0001C36.667 18.1102 35.1218 14.3797 32.3712 11.6292C29.6207 8.87865 25.8902 7.33341 22.0003 7.33341C18.1105 7.33341 14.38 8.87865 11.6294 11.6292C8.87889 14.3797 7.33366 18.1102 7.33366 22.0001C7.33366 25.8899 8.87889 29.6204 11.6294 32.371C14.38 35.1215 18.1105 36.6667 22.0003 36.6667ZM22.0003 3.66675C24.4079 3.66675 26.7919 4.14095 29.0162 5.06229C31.2405 5.98363 33.2615 7.33405 34.964 9.03646C36.6664 10.7389 38.0168 12.7599 38.9381 14.9842C39.8595 17.2085 40.3337 19.5925 40.3337 22.0001C40.3337 26.8624 38.4021 31.5255 34.964 34.9637C31.5258 38.4019 26.8626 40.3334 22.0003 40.3334C11.862 40.3334 3.66699 32.0834 3.66699 22.0001C3.66699 17.1378 5.59853 12.4746 9.0367 9.03646C12.4749 5.59829 17.138 3.66675 22.0003 3.66675ZM22.917 12.8334V22.4584L31.167 27.3534L29.792 29.6084L20.167 23.8334V12.8334H22.917Z" fill="#DBD7F7"/>
</svg>
