<svg width="44" height="44" viewBox="0 0 44 44" fill="none" xmlns="http://www.w3.org/2000/svg">
<path d="M23.8337 9.16675H18.3337C17.8474 9.16675 17.3811 9.3599 17.0373 9.70372C16.6935 10.0475 16.5003 10.5139 16.5003 11.0001V33.0001C16.5003 33.4863 16.6935 33.9526 17.0373 34.2964C17.3811 34.6403 17.8474 34.8334 18.3337 34.8334H23.8337C24.3199 34.8334 24.7862 34.6403 25.13 34.2964C25.4738 33.9526 25.667 33.4863 25.667 33.0001V11.0001C25.667 10.5139 25.4738 10.0475 25.13 9.70372C24.7862 9.3599 24.3199 9.16675 23.8337 9.16675ZM36.667 9.16675H31.167C30.6808 9.16675 30.2144 9.3599 29.8706 9.70372C29.5268 10.0475 29.3337 10.5139 29.3337 11.0001V33.0001C29.3337 33.4863 29.5268 33.9526 29.8706 34.2964C30.2144 34.6403 30.6808 34.8334 31.167 34.8334H36.667C37.1532 34.8334 37.6195 34.6403 37.9634 34.2964C38.3072 33.9526 38.5003 33.4863 38.5003 33.0001V11.0001C38.5003 10.5139 38.3072 10.0475 37.9634 9.70372C37.6195 9.3599 37.1532 9.16675 36.667 9.16675ZM11.0003 9.16675H5.50033C5.0141 9.16675 4.54778 9.3599 4.20396 9.70372C3.86015 10.0475 3.66699 10.5139 3.66699 11.0001V33.0001C3.66699 33.4863 3.86015 33.9526 4.20396 34.2964C4.54778 34.6403 5.0141 34.8334 5.50033 34.8334H11.0003C11.4866 34.8334 11.9529 34.6403 12.2967 34.2964C12.6405 33.9526 12.8337 33.4863 12.8337 33.0001V11.0001C12.8337 10.5139 12.6405 10.0475 12.2967 9.70372C11.9529 9.3599 11.4866 9.16675 11.0003 9.16675Z" fill="white"/>
</svg>
